# xmcd
#
# Track frame offsets: 
#        150
#        21975
#        35564
#        51104
#        68461
#        82287
#        97073
#        114294
#        136290
#        153588
#        170683
#        188079
#
# Disc length: 2689 seconds
#
# Revision: 0
# Processed by: cddbd v1.5PL3 Copyright (c) Steve Scherf et al.
# Submitted via: ExactAudioCopy v0.95a4
#
DISCID=a20a7f0c
DTITLE=Magda Anio³ Band - Do góry nogami
DYEAR=2004
DGENRE=christian
TTITLE0=Ramiona szeroko otwarte
TTITLE1=Do góry nogami
TTITLE2=Cos sie swieci
TTITLE3=Czyste
TTITLE4=Akt wiary
TTITLE5=Nie ma nic niemo¿liwego
TTITLE6=Kto s¹dzi ten b³¹dzi
TTITLE7=Jak rzeka
TTITLE8=Historia
TTITLE9=Nie jestes sam
TTITLE10=Wszystkie dzieci id¹ do nieba
TTITLE11=Dwie siostry
EXTD=
EXTT0=
EXTT1=
EXTT2=
EXTT3=
EXTT4=
EXTT5=
EXTT6=
EXTT7=
EXTT8=
EXTT9=
EXTT10=
EXTT11=
PLAYORDER=
